<?xml version="1.0" encoding="UTF-8" standalone="no"?>
<!-- Generator: Adobe Illustrator 16.0.0, SVG Export Plug-In . SVG Version: 6.00 Build 0)  -->

<svg
   xmlns:dc="http://purl.org/dc/elements/1.1/"
   xmlns:cc="http://creativecommons.org/ns#"
   xmlns:rdf="http://www.w3.org/1999/02/22-rdf-syntax-ns#"
   xmlns:svg="http://www.w3.org/2000/svg"
   xmlns="http://www.w3.org/2000/svg"
   xmlns:sodipodi="http://sodipodi.sourceforge.net/DTD/sodipodi-0.dtd"
   xmlns:inkscape="http://www.inkscape.org/namespaces/inkscape"
   version="1.1"
   id="Layer_1"
   x="0px"
   y="0px"
   width="352.4184"
   height="100.40401"
   viewBox="0 0 352.41842 100.40401"
   enable-background="new 0 0 258.494 204.191"
   xml:space="preserve"
   inkscape:version="0.48.4 r9939"
   sodipodi:docname="eit.svg"><metadata
     id="metadata109"><rdf:RDF><cc:Work
         rdf:about=""><dc:format>image/svg+xml</dc:format><dc:type
           rdf:resource="http://purl.org/dc/dcmitype/StillImage" /><dc:title /></cc:Work></rdf:RDF></metadata><defs
     id="defs107" /><sodipodi:namedview
     pagecolor="#ffffff"
     bordercolor="#666666"
     borderopacity="1"
     objecttolerance="10"
     gridtolerance="10"
     guidetolerance="10"
     inkscape:pageopacity="0"
     inkscape:pageshadow="2"
     inkscape:window-width="1855"
     inkscape:window-height="1056"
     id="namedview105"
     showgrid="false"
     inkscape:zoom="1.1557806"
     inkscape:cx="-43.590263"
     inkscape:cy="13.590504"
     inkscape:window-x="1505"
     inkscape:window-y="24"
     inkscape:window-maximized="1"
     inkscape:current-layer="Layer_1"
     fit-margin-top="0"
     fit-margin-left="0"
     fit-margin-right="0"
     fit-margin-bottom="0" /><g
     style="fill:#000000"
     id="g93"
     transform="matrix(1.0000001,0,0,1.0040564,-19.694002,-15.74963)"><rect
       style="fill:#000000"
       id="rect95"
       height="99.595001"
       width="19.92"
       y="15.687"
       x="139.20599" /><rect
       style="fill:#000000"
       id="rect97"
       height="19.919001"
       width="99.593002"
       y="95.360001"
       x="19.700001" /><rect
       style="fill:#000000"
       id="rect99"
       height="19.917999"
       width="99.593002"
       y="55.522999"
       x="19.694" /><rect
       style="fill:#000000"
       id="rect101"
       height="19.917999"
       width="99.593002"
       y="15.687"
       x="19.694" /><polygon
       style="fill:#000000"
       id="polygon103"
       points="198.962,15.686 179.044,15.686 179.044,35.605 198.962,35.605 198.962,115.279 218.88,115.279 218.88,35.605 238.8,35.605 238.8,15.686 218.88,15.686 " /></g><g
     id="g3"
     transform="matrix(0.82023925,0,0,0.79909228,212.5102,-7.9297315)"
     style="fill:#e2001a;fill-opacity:1"><path
       d="m 162.18,41.592 c -5.595,-9.586 -13.185,-17.176 -22.771,-22.771 -9.588,-5.595 -20.055,-8.392 -31.408,-8.392 -11.352,0 -21.822,2.797 -31.408,8.392 -9.587,5.594 -17.177,13.184 -22.772,22.771 -5.596,9.587 -8.393,20.057 -8.393,31.408 0,11.352 2.798,21.82 8.392,31.408 5.595,9.585 13.185,17.176 22.772,22.771 9.587,5.595 20.056,8.392 31.408,8.392 11.352,0 21.822,-2.797 31.408,-8.392 9.586,-5.594 17.176,-13.185 22.771,-22.771 5.594,-9.587 8.391,-20.057 8.391,-31.408 0,-11.352 -2.797,-21.822 -8.39,-31.408 z m -15.806,53.65 c -3.965,6.789 -9.342,12.167 -16.132,16.132 -6.789,3.965 -14.203,5.946 -22.242,5.946 -8.038,0 -15.452,-1.981 -22.242,-5.946 C 78.969,107.409 73.592,102.031 69.627,95.242 65.661,88.453 63.679,81.039 63.679,73 c 0,-8.039 1.983,-15.453 5.948,-22.242 3.964,-6.789 9.342,-12.167 16.131,-16.132 6.789,-3.965 14.203,-5.947 22.242,-5.947 8.039,0 15.453,1.982 22.242,5.947 6.79,3.965 12.167,9.343 16.132,16.132 3.965,6.789 5.946,14.203 5.946,22.242 0,8.039 -1.981,15.453 -5.946,22.242 z"
       id="path5"
       inkscape:connector-curvature="0"
       style="fill:#e2001a;fill-opacity:1" /><path
       d="m 115.822,41.714 h -5.215 c -0.762,0 -1.385,0.245 -1.875,0.733 C 108.245,42.936 108,43.56 108,44.321 V 73 H 89.75 c -0.761,0 -1.385,0.244 -1.874,0.732 -0.489,0.488 -0.733,1.113 -0.733,1.875 v 5.214 c 0,0.761 0.244,1.385 0.733,1.874 0.489,0.488 1.114,0.732 1.874,0.732 h 26.073 c 0.76,0 1.385,-0.244 1.872,-0.732 0.488,-0.489 0.734,-1.113 0.734,-1.874 v -36.5 c 0,-0.76 -0.246,-1.384 -0.734,-1.874 -0.488,-0.488 -1.113,-0.733 -1.873,-0.733 z"
       id="path7"
       inkscape:connector-curvature="0"
       style="fill:#e2001a;fill-opacity:1" /></g></svg>